<?xml version="1.0" encoding="UTF-8" standalone="no"?>
<svg
   xmlns:dc="http://purl.org/dc/elements/1.1/"
   xmlns:cc="http://creativecommons.org/ns#"
   xmlns:rdf="http://www.w3.org/1999/02/22-rdf-syntax-ns#"
   xmlns:svg="http://www.w3.org/2000/svg"
   xmlns="http://www.w3.org/2000/svg"
   viewBox="0 0 45.585053 34.983051"
   height="34.983051"
   width="45.585052"
   xml:space="preserve"
   id="svg475"
   version="1.1"><metadata
     id="metadata481"><rdf:RDF><cc:Work
         rdf:about=""><dc:format>image/svg+xml</dc:format><dc:type
           rdf:resource="http://purl.org/dc/dcmitype/StillImage" /><dc:title></dc:title></cc:Work></rdf:RDF></metadata><defs
     id="defs479" /><g
     transform="matrix(1.3333333,0,0,-1.3333333,0,34.98305)"
     id="g483"><g
       transform="scale(0.14576271)"
       id="g485"><path
         id="path487"
         style="fill:#ffffff;fill-opacity:1;fill-rule:nonzero;stroke:none"
         d="m 153.379,26.6211 h -26.691 v 41.7773 c 0,9.961 -0.172,22.7735 -13.875,22.7735 -13.8872,0 -16.0083,-10.8594 -16.0083,-22.0625 V 26.6211 H 70.1367 V 112.52 h 25.586 v -11.743 h 0.3711 c 3.5664,6.754 12.2652,13.871 25.2542,13.871 27.043,0 32.031,-17.7847 32.031,-40.9175 z M 40.0391,124.254 c -8.5743,0 -15.5,6.937 -15.5,15.48 0,8.547 6.9257,15.485 15.5,15.485 8.5351,0 15.4687,-6.938 15.4687,-15.485 0,-8.543 -6.9336,-15.48 -15.4687,-15.48 z M 53.3906,26.6211 H 26.6602 V 112.52 H 53.3906 Z M 166.672,180 H 13.2734 C 5.94922,180 0,174.191 0,167.023 V 12.9883 C 0,5.82031 5.94922,0 13.2734,0 H 166.672 c 7.344,0 13.316,5.82031 13.316,12.9883 V 167.023 c 0,7.168 -5.972,12.977 -13.316,12.977" /><path
         id="path489"
         style="fill:#ffffff;fill-opacity:1;fill-rule:nonzero;stroke:none"
         d="m 212.891,43.4453 h -3.75 v 7.6172 h 4.746 c 2.461,0 5.273,-0.4102 5.273,-3.6211 0,-3.6914 -2.832,-3.9961 -6.269,-3.9961 z m 3.73,-2.2461 c 3.789,0.461 5.774,2.5508 5.774,6.0586 0,4.2852 -2.59,6.3555 -7.922,6.3555 h -8.567 v -22.5 h 3.235 v 9.793 h 3.972 l 0.09,-0.1172 6.172,-9.6758 h 3.445 l -6.629,10.0312 0.43,0.0547" /><path
         id="path491"
         style="fill:#ffffff;fill-opacity:1;fill-rule:nonzero;stroke:none"
         d="m 213.254,23.8398 c -10.195,0 -18.176,8.0469 -18.176,18.504 0,10.4296 7.981,18.4843 18.176,18.4843 10.191,0 18.184,-8.0547 18.184,-18.4843 0,-10.4571 -7.993,-18.504 -18.184,-18.504 z m 0,39.7813 c -11.953,0 -21.32,-9.3516 -21.32,-21.2773 0,-11.9532 9.367,-21.2891 21.32,-21.2891 11.949,0 21.297,9.3359 21.297,21.2891 0,11.9257 -9.348,21.2773 -21.297,21.2773" /></g></g></svg>