<?xml version="1.0" encoding="UTF-8" standalone="no"?>
<svg
   xmlns:dc="http://purl.org/dc/elements/1.1/"
   xmlns:cc="http://creativecommons.org/ns#"
   xmlns:rdf="http://www.w3.org/1999/02/22-rdf-syntax-ns#"
   xmlns:svg="http://www.w3.org/2000/svg"
   xmlns="http://www.w3.org/2000/svg"
   id="svg8"
   version="1.1"
   viewBox="0 0 9.5069359 9.2723395"
   height="35.045063"
   width="35.931725">
  <defs
     id="defs2" />
  <metadata
     id="metadata5">
    <rdf:RDF>
      <cc:Work
         rdf:about="">
        <dc:format>image/svg+xml</dc:format>
        <dc:type
           rdf:resource="http://purl.org/dc/dcmitype/StillImage" />
        <dc:title></dc:title>
      </cc:Work>
    </rdf:RDF>
  </metadata>
  <g
     transform="translate(-0.16804827,-2.0452863)"
     style="display:inline"
     id="layer1">
    <g
       style="display:inline"
       id="layer2">
      <path
         id="path159"
         style="fill:#ffffff;fill-opacity:1;fill-rule:evenodd;stroke:none;stroke-width:0.02918136"
         d="m 4.9211082,2.0452863 c -2.6245714,0 -4.75305993,2.1281965 -4.75305993,4.7536439 0,2.1001821 1.36189433,3.8817048 3.25080343,4.5102708 0.2378281,0.04377 0.3244968,-0.10301 0.3244968,-0.229073 0,-0.112932 -0.00405,-0.411748 -0.00645,-0.808324 C 2.414689,10.558949 2.1357157,9.6344826 2.1357157,9.6344826 1.9194812,9.08529 1.6078248,8.9390912 1.6078248,8.9390912 1.1762319,8.644359 1.640507,8.6501956 1.640507,8.6501956 2.1176217,8.6837547 2.3685815,9.1401509 2.3685815,9.1401509 2.7925866,9.866475 3.4812672,9.6566604 3.7520704,9.5349744 3.7952578,9.2279866 3.9181118,9.018464 4.0538055,8.8996964 2.9983158,8.7797606 1.8885485,8.3718055 1.8885485,6.5503047 1.8885485,6.03146 2.0738503,5.6068718 2.3779197,5.2747871 2.328892,5.1545604 2.1657715,4.6710249 2.4246148,4.0167787 c 0,0 0.398909,-0.1278139 1.3070327,0.4873287 C 4.1107136,4.3984714 4.5175016,4.345945 4.9216633,4.3439017 5.325533,4.3459747 5.7320298,4.3984718 6.1116796,4.5041074 7.0192201,3.8889648 7.417545,4.0167787 7.417545,4.0167787 7.6769676,4.6710249 7.5138438,5.1545604 7.465112,5.2747871 7.7697658,5.6068718 7.953608,6.03146 7.953608,6.5503047 c 0,1.8261695 -1.1115182,2.2279968 -2.1702175,2.3455981 0.1704192,0.1467821 0.3224539,0.4368448 0.3224539,0.8801101 0,0.6355701 -0.00587,1.1482871 -0.00587,1.3041151 0,0.12723 0.085793,0.27518 0.3268312,0.228782 1.8874511,-0.630026 3.2481783,-2.4103809 3.2481783,-4.5099798 0,-2.6254474 -2.1284893,-4.7536439 -4.7539373,-4.7536439" />
    </g>
  </g>
</svg>
